<svg width="160" height="80" viewBox="0 0 160 80" fill="none" xmlns="http://www.w3.org/2000/svg">
<rect width="160" height="80" rx="4" fill="white"/>
<path d="M70.3528 24.3065V36.9635H68.3459V37.8047H73.4435V36.9635H71.4366V24.3065H73.4435V23.4653H68.3459V24.3065H70.3528Z" fill="#8F8E8C"/>
<path d="M74.2643 36.9635V37.8047H78.559V36.9635H76.9535V31.9167C76.9535 30.7151 77.1943 29.7738 77.7161 29.0729C78.2179 28.392 78.8801 28.0315 79.6829 28.0315C80.4857 28.0315 81.0677 28.2718 81.4691 28.7525C81.8504 29.2331 82.0511 29.9941 82.0511 31.0155V36.9635H80.3251V37.8047H84.6199V36.9635H83.1348V31.0155C83.1348 29.7138 82.8739 28.7525 82.3922 28.1316C81.9106 27.5108 81.1078 27.1904 80.0241 27.1904C78.539 27.1904 77.5355 27.8312 76.9937 29.0929H76.9535V27.4707H74.2643V28.3119H75.8698V36.9635H74.2643Z" fill="#8F8E8C"/>
<path d="M93.3031 24.3065V29.2131H93.2629C92.9017 28.5322 92.4401 28.0115 91.8782 27.691C91.3162 27.3706 90.6339 27.1904 89.8713 27.1904C89.209 27.1904 88.627 27.3305 88.1252 27.6109C87.6035 27.8913 87.182 28.2518 86.8408 28.7324C86.4796 29.2131 86.2187 29.7939 86.0381 30.4548C85.8574 31.1357 85.7772 31.8566 85.7772 32.6377C85.7772 33.7592 85.8976 34.6604 86.1785 35.3614C86.4394 36.0623 86.7806 36.6231 87.182 37.0236C87.5834 37.4242 88.045 37.7045 88.5266 37.8647C89.0083 38.025 89.4498 38.085 89.8713 38.085C90.2726 38.085 90.6339 38.065 90.955 37.9849C91.2761 37.9248 91.5571 37.8047 91.838 37.6445C92.119 37.4842 92.3598 37.284 92.6007 37.0236C92.8214 36.7633 93.0422 36.4428 93.2629 36.0423H93.3031V37.8047H95.7716V36.9635H94.3868V23.4653H91.5771V24.3065H93.3031ZM86.8609 32.6377C86.8609 31.9968 86.9211 31.4161 87.0616 30.8553C87.2021 30.2945 87.4228 29.8139 87.7038 29.3933C87.9848 28.9728 88.3259 28.6323 88.7474 28.392C89.1488 28.1517 89.6505 28.0315 90.2124 28.0315C90.5536 28.0315 90.9149 28.1116 91.2962 28.2518C91.6574 28.392 91.9986 28.6323 92.3197 28.9527C92.6408 29.2932 92.9017 29.7538 93.1024 30.3146C93.3031 30.8954 93.4235 31.6163 93.4235 32.4575C93.4235 33.0583 93.3633 33.6591 93.2429 34.2198C93.1225 34.8006 92.9418 35.3213 92.701 35.7619C92.4602 36.2025 92.119 36.563 91.7176 36.8434C91.3162 37.1238 90.8145 37.2439 90.2124 37.2439C89.6505 37.2439 89.1488 37.1238 88.7474 36.8834C88.3259 36.6431 87.9848 36.3227 87.7038 35.9021C87.4228 35.4815 87.2021 35.0009 87.0616 34.4401C86.9211 33.8794 86.8609 33.2786 86.8609 32.6377Z" fill="#8F8E8C"/>
<path d="M98.0126 32.838H105.559C105.559 32.117 105.478 31.4161 105.318 30.7351C105.157 30.0542 104.916 29.4534 104.595 28.9327C104.274 28.412 103.833 27.9914 103.311 27.671C102.769 27.3506 102.127 27.1904 101.364 27.1904C100.601 27.1904 99.9392 27.3305 99.3773 27.6109C98.8153 27.8913 98.3738 28.2518 98.0126 28.7324C97.6513 29.2131 97.3704 29.7939 97.1897 30.4548C97.0091 31.1357 96.9288 31.8566 96.9288 32.6377C96.9288 33.4388 97.0091 34.1598 97.1897 34.8206C97.3704 35.5016 97.6513 36.0623 98.0126 36.543C98.3738 37.0236 98.8153 37.4041 99.3773 37.6845C99.9392 37.9649 100.601 38.085 101.364 38.085C102.408 38.085 103.291 37.8247 104.013 37.2639C104.716 36.7032 105.157 35.8621 105.358 34.7205H104.395C104.234 35.6418 103.893 36.2826 103.351 36.6631C102.789 37.0637 102.127 37.2439 101.364 37.2439C100.3 37.2439 99.4776 36.8634 98.9157 36.0623C98.3337 35.2612 98.0326 34.1998 98.0126 32.838ZM104.475 31.9968H98.0126C98.0527 31.4161 98.1731 30.8753 98.3337 30.3947C98.4942 29.914 98.715 29.4935 98.996 29.133C99.2769 28.7925 99.598 28.5322 99.9793 28.3319C100.341 28.1316 100.762 28.0315 101.224 28.0315C102.267 28.0315 103.05 28.392 103.612 29.0929C104.154 29.7939 104.435 30.7552 104.475 31.9968Z" fill="#8F8E8C"/>
<path d="M106.522 36.9635V37.8047H110.054V36.9635H108.629L111.399 33.1985L114.168 36.9635H112.743V37.8047H116.275V36.9635H115.372L112.061 32.4775L115.152 28.3119H116.195V27.4707H112.663V28.3119H113.947L111.399 31.7565L108.89 28.3119H110.335V27.4707H106.803V28.3119H107.686L110.736 32.4775L107.425 36.9635H106.522Z" fill="#8F8E8C"/>
<path d="M67.8643 42.2208V43.0619H69.1286L73.9452 56.5601H75.2697L80.0863 43.0619H81.3507V42.2208H76.7348V43.0619H78.8822L74.6275 55.3585H74.5874L70.3328 43.0619H72.4801V42.2208H67.8643Z" fill="#8F8E8C"/>
<path d="M82.0396 51.5934H89.5856C89.5856 50.8725 89.5053 50.1715 89.3448 49.4906C89.1842 48.8097 88.9434 48.2089 88.6223 47.6882C88.3012 47.1675 87.8596 46.7469 87.3379 46.4265C86.796 46.106 86.1538 45.9458 85.3912 45.9458C84.6285 45.9458 83.9662 46.086 83.4043 46.3664C82.8424 46.6468 82.4009 47.0072 82.0396 47.4879C81.6784 47.9685 81.3974 48.5493 81.2168 49.2102C81.0362 49.8911 80.9559 50.6121 80.9559 51.3932C80.9559 52.1942 81.0362 52.9152 81.2168 53.5761C81.3974 54.257 81.6784 54.8178 82.0396 55.2984C82.4009 55.7791 82.8424 56.1596 83.4043 56.44C83.9662 56.7203 84.6285 56.8405 85.3912 56.8405C86.4347 56.8405 87.3178 56.5802 88.0403 56.0194C88.7427 55.4586 89.1842 54.6175 89.3849 53.476H88.4216C88.261 54.3972 87.9199 55.0381 87.378 55.4186C86.8161 55.8191 86.1538 55.9994 85.3912 55.9994C84.3275 55.9994 83.5047 55.6189 82.9427 54.8178C82.3607 54.0167 82.0597 52.9553 82.0396 51.5934ZM88.5019 50.7523H82.0396C82.0798 50.1715 82.2002 49.6308 82.3607 49.1501C82.5213 48.6695 82.742 48.2489 83.023 47.8884C83.304 47.548 83.6251 47.2876 84.0064 47.0873C84.3676 46.8871 84.7891 46.7869 85.2507 46.7869C86.2943 46.7869 87.077 47.1474 87.6389 47.8484C88.1808 48.5493 88.4617 49.5106 88.5019 50.7523Z" fill="#8F8E8C"/>
<path d="M90.6292 55.719V56.5601H94.924V55.719H93.3184V50.6722C93.3184 49.4706 93.5593 48.5293 94.0811 47.8283C94.5828 47.1474 95.2451 46.7869 96.0478 46.7869C96.8506 46.7869 97.4326 47.0273 97.834 47.5079C98.2153 47.9886 98.416 48.7496 98.416 49.771V55.719H96.69V56.5601H100.985V55.719H99.4997V49.771C99.4997 48.4692 99.2388 47.5079 98.7572 46.8871C98.2755 46.2662 97.4727 45.9458 96.389 45.9458C94.9039 45.9458 93.9004 46.5867 93.3586 47.8484H93.3184V46.2262H90.6292V47.0673H92.2347V55.719H90.6292Z" fill="#8F8E8C"/>
<path d="M103.386 44.0232V46.2262H101.54V47.0673H103.386V54.5374C103.386 55.2984 103.527 55.8792 103.848 56.2597C104.169 56.6603 104.671 56.8405 105.393 56.8405C106.076 56.8405 106.617 56.6002 106.999 56.1195C107.38 55.6389 107.581 54.978 107.581 54.1769V53.7964H106.738V54.0167C106.738 54.6576 106.617 55.1582 106.417 55.4987C106.216 55.8391 105.895 55.9994 105.494 55.9994C105.213 55.9994 104.972 55.8792 104.771 55.6189C104.57 55.3785 104.47 54.9379 104.47 54.2971V47.0673H107.26V46.2262H104.47V43.6227L103.386 44.0232Z" fill="#8F8E8C"/>
<path d="M108.464 46.2262V47.0673H109.949V53.0153C109.949 54.3371 110.19 55.2984 110.672 55.9193C111.153 56.5401 111.956 56.8405 113.06 56.8405C113.742 56.8405 114.364 56.6803 114.886 56.3398C115.408 55.9994 115.809 55.5187 116.09 54.8779H116.13V56.5601H118.82V55.719H117.214V46.2262H114.525V47.0673H116.13V52.2343C116.13 53.4359 115.869 54.3572 115.348 55.018C114.826 55.6789 114.164 55.9994 113.401 55.9994C112.598 55.9994 111.996 55.759 111.615 55.2784C111.213 54.7977 111.033 54.0567 111.033 53.0153V46.2262H108.464Z" fill="#8F8E8C"/>
<path d="M119.616 55.719V56.5601H124.272V55.719H122.305V50.6722C122.305 50.1315 122.345 49.6308 122.465 49.1702C122.586 48.7095 122.746 48.309 122.987 47.9685C123.228 47.6481 123.509 47.3878 123.87 47.1875C124.232 47.0072 124.653 46.9071 125.135 46.9071C125.215 46.9071 125.295 46.9271 125.396 46.9271C125.476 46.9271 125.556 46.9472 125.616 46.9672V46.0059C125.496 45.9658 125.295 45.9458 125.054 45.9458C124.432 45.9458 123.87 46.126 123.389 46.4865C122.907 46.847 122.546 47.3878 122.345 48.0687H122.305V46.2262H119.616V47.0673H121.221V55.719H119.616Z" fill="#8F8E8C"/>
<path d="M127.744 51.5934H135.29C135.29 50.8725 135.21 50.1715 135.049 49.4906C134.888 48.8097 134.648 48.2089 134.326 47.6882C134.005 47.1675 133.564 46.7469 133.042 46.4265C132.5 46.106 131.858 45.9458 131.095 45.9458C130.333 45.9458 129.67 46.086 129.109 46.3664C128.547 46.6468 128.105 47.0072 127.744 47.4879C127.383 47.9685 127.102 48.5493 126.921 49.2102C126.74 49.8911 126.66 50.6121 126.66 51.3932C126.66 52.1942 126.74 52.9152 126.921 53.5761C127.102 54.257 127.383 54.8178 127.744 55.2984C128.105 55.7791 128.547 56.1596 129.109 56.44C129.67 56.7203 130.333 56.8405 131.095 56.8405C132.139 56.8405 133.022 56.5802 133.744 56.0194C134.447 55.4586 134.888 54.6175 135.089 53.476H134.126C133.965 54.3972 133.624 55.0381 133.082 55.4186C132.52 55.8191 131.858 55.9994 131.095 55.9994C130.032 55.9994 129.209 55.6189 128.647 54.8178C128.065 54.0167 127.764 52.9553 127.744 51.5934ZM134.206 50.7523H127.744C127.784 50.1715 127.904 49.6308 128.065 49.1501C128.225 48.6695 128.446 48.2489 128.727 47.8884C129.008 47.548 129.329 47.2876 129.711 47.0873C130.072 46.8871 130.493 46.7869 130.955 46.7869C131.998 46.7869 132.781 47.1474 133.343 47.8484C133.885 48.5493 134.166 49.5106 134.206 50.7523Z" fill="#8F8E8C"/>
<path d="M136.775 52.9352V56.5601H137.618V55.1783H137.658H137.638C137.879 55.7791 138.22 56.1996 138.702 56.46C139.163 56.7203 139.745 56.8405 140.427 56.8405C141.511 56.8405 142.394 56.5801 143.036 56.0594C143.679 55.5387 144 54.7377 144 53.6562C144 52.8752 143.779 52.2543 143.358 51.8137C142.936 51.3731 142.254 51.0927 141.29 50.9325L139.785 50.6922C139.263 50.6121 138.842 50.4519 138.481 50.2116C138.12 49.9712 137.959 49.5907 137.959 49.03C137.959 48.3691 138.16 47.8283 138.601 47.4078C139.023 47.0072 139.605 46.7869 140.367 46.7869C141.13 46.7869 141.752 47.0072 142.254 47.4078C142.735 47.8283 142.996 48.4292 142.996 49.2102V49.771H143.839V46.2262H142.996V47.4478H142.956C142.695 46.9271 142.334 46.5466 141.872 46.3063C141.391 46.066 140.849 45.9458 140.207 45.9458C139.765 45.9458 139.344 46.0259 138.942 46.1661C138.541 46.3063 138.18 46.5066 137.879 46.7869C137.558 47.0673 137.317 47.3878 137.136 47.7883C136.956 48.1888 136.875 48.6495 136.875 49.1702C136.875 49.8911 137.076 50.4519 137.517 50.8324C137.959 51.2329 138.581 51.4933 139.384 51.6335L140.688 51.8337C141.09 51.9139 141.451 51.994 141.732 52.0741C142.013 52.1742 142.254 52.2944 142.434 52.4346C142.595 52.5948 142.715 52.775 142.796 52.9753C142.876 53.1956 142.916 53.4559 142.916 53.7563C142.916 54.4773 142.675 55.0381 142.234 55.4186C141.772 55.8191 141.15 55.9994 140.387 55.9994C139.605 55.9994 138.962 55.759 138.441 55.2584C137.919 54.7577 137.658 53.9766 137.618 52.9352H136.775Z" fill="#8F8E8C"/>
<path d="M45.8936 53.207H27.2007V56.9596H45.8936V53.207Z" fill="#8F8E8C"/>
<path d="M53.3478 45.7402H27.2007V49.4928H53.3478V45.7402Z" fill="#8F8E8C"/>
<path d="M57.094 38.2354H27.2007V41.9879H57.094V38.2354Z" fill="#8F8E8C"/>
<path d="M53.3478 30.7681H27.2007V34.5206H53.3478V30.7681Z" fill="#8F8E8C"/>
<path d="M34.6929 23.2637H16V27.0162H34.6929V23.2637Z" fill="#8F8E8C"/>
</svg>
