<svg width="24" height="24" viewBox="0 0 24 24" fill="none" xmlns="http://www.w3.org/2000/svg">
<path d="M12.2713 1C9.58876 0.999204 6.99396 1.95544 4.95346 3.69677C2.91296 5.4381 1.56064 7.85027 1.13965 10.4995C0.718665 13.1488 1.25664 15.8614 2.65684 18.1494C4.05704 20.4375 6.2276 22.151 8.77822 22.9818H9.05052C9.18338 22.99 9.31646 22.9699 9.44096 22.9228C9.56545 22.8757 9.67851 22.8027 9.77263 22.7086C9.86675 22.6144 9.93979 22.5014 9.98689 22.3769C10.034 22.2524 10.0541 22.1193 10.0459 21.9864V21.7893C10.0459 21.6296 10.0459 21.4137 10.0459 20.7658C10.0366 20.7042 10.0153 20.6452 9.98305 20.592C9.95081 20.5388 9.90833 20.4925 9.85806 20.4559C9.80351 20.4118 9.73977 20.3804 9.67153 20.3642C9.60328 20.3479 9.53226 20.3472 9.46368 20.362C6.94719 20.9066 6.41196 19.3291 6.3744 19.2258C6.05928 18.3912 5.49554 17.6734 4.75934 17.1694C4.71523 17.1313 4.66813 17.0967 4.61849 17.0661C4.72761 17.0074 4.85242 16.9844 4.9753 17.0004C5.21131 17.0332 5.4348 17.1266 5.62403 17.2714C5.81326 17.4162 5.96178 17.6075 6.05514 17.8267C6.41839 18.4592 7.0128 18.9261 7.71332 19.1293C8.41383 19.3324 9.16583 19.256 9.81111 18.9159C9.88035 18.8857 9.94127 18.8391 9.98867 18.7803C10.0361 18.7214 10.0686 18.652 10.0834 18.5779C10.1194 18.1436 10.3053 17.7353 10.6092 17.423C10.6767 17.363 10.7255 17.2849 10.7498 17.198C10.774 17.111 10.7726 17.0189 10.7459 16.9327C10.7191 16.8465 10.6681 16.7699 10.5989 16.7119C10.5297 16.654 10.4453 16.6172 10.3557 16.606C8.13031 16.3525 5.85796 15.5731 5.85796 11.7327C5.8392 10.7682 6.19223 9.83351 6.8439 9.12227C6.90392 9.05598 6.94375 8.97393 6.95872 8.88576C6.9737 8.7976 6.96318 8.70699 6.92841 8.62461C6.66744 7.89551 6.67076 7.09793 6.9378 6.37103C7.80526 6.5248 8.61946 6.89636 9.30405 7.45087C9.36061 7.49079 9.42544 7.51743 9.49373 7.52881C9.56201 7.54019 9.63198 7.53602 9.69843 7.5166C10.5372 7.28906 11.4022 7.17226 12.2713 7.16917C13.1436 7.1699 14.012 7.28674 14.8535 7.5166C14.9186 7.53455 14.9868 7.53797 15.0533 7.52661C15.1198 7.51525 15.1831 7.48939 15.2385 7.45087C15.9241 6.8981 16.7379 6.52676 17.6047 6.37103C17.8604 7.09403 17.8604 7.88282 17.6047 8.60583C17.57 8.68821 17.5594 8.77882 17.5744 8.86698C17.5894 8.95515 17.6292 9.0372 17.6892 9.10349C18.3342 9.80762 18.6867 10.7309 18.6752 11.6857C18.6752 15.5262 16.3934 16.2962 14.1586 16.5497C14.067 16.5592 13.9801 16.5955 13.909 16.6541C13.8378 16.7126 13.7855 16.7908 13.7584 16.8789C13.7314 16.967 13.7309 17.0612 13.757 17.1495C13.7831 17.2379 13.8346 17.3167 13.9051 17.376C14.1131 17.5907 14.272 17.8479 14.3709 18.13C14.4698 18.4121 14.5063 18.7123 14.4779 19.0098V21.9958C14.4732 22.1426 14.5011 22.2886 14.5596 22.4234C14.618 22.5581 14.7056 22.6783 14.8159 22.7752C14.9565 22.8804 15.1196 22.9513 15.2925 22.9823C15.4653 23.0133 15.6429 23.0035 15.8113 22.9536C18.3448 22.106 20.4947 20.3859 21.8775 18.1001C23.2602 15.8143 23.7859 13.1115 23.3606 10.4741C22.9353 7.83663 21.5868 5.43608 19.5556 3.70077C17.5244 1.96546 14.9428 1.00827 12.2713 1V1Z" fill="white"/>
</svg>
