<svg width="24" height="24" viewBox="0 0 24 24" fill="none" xmlns="http://www.w3.org/2000/svg">
<g clip-path="url(#clip0)">
<path fill-rule="evenodd" clip-rule="evenodd" d="M21.3766 3.98149C22.4092 4.2575 23.2225 5.07073 23.4985 6.10333C24 7.97497 24 11.88 24 11.88C24 11.88 24 15.785 23.4985 17.6566C23.2225 18.6892 22.4092 19.5025 21.3766 19.7785C19.505 20.28 12 20.28 12 20.28C12 20.28 4.49499 20.28 2.62335 19.7785C1.59075 19.5025 0.777518 18.6892 0.501503 17.6566C0 15.785 0 11.88 0 11.88C0 11.88 0 7.97497 0.501503 6.10333C0.77752 5.07073 1.59075 4.2575 2.62335 3.98149C4.49499 3.47998 12 3.47998 12 3.47998C12 3.47998 19.505 3.47998 21.3766 3.98149ZM15.8351 11.8801L9.59997 15.48V8.27997L15.8351 11.8801Z" fill="white"/>
</g>
<defs>
<clipPath id="clip0">
<rect width="24" height="24" fill="white"/>
</clipPath>
</defs>
</svg>
