<svg width="160" height="80" viewBox="0 0 160 80" fill="none" xmlns="http://www.w3.org/2000/svg">
<rect width="160" height="80" rx="4" fill="white"/>
<g clip-path="url(#clip0)">
<path d="M42.2679 34.4765L26.24 25.2227L24.2366 26.3802V28.6931L22.2331 27.5356L20.2296 28.6931V31.006L18.2261 29.8485L16.2227 31.006V49.5137L18.2261 50.6713L20.2296 49.5137V51.8266L22.2331 52.9842L24.2366 51.8266V54.1395L26.24 55.2971L42.2679 46.0432V43.7303L40.2644 42.5728L42.2679 41.4152V39.1023L40.2644 37.9447L42.2679 36.7872V34.4765ZM20.2296 47.2008L18.2261 48.3584V32.1636L20.2296 33.3212V47.2008V47.2008ZM26.24 48.3562V46.0432L34.254 41.4174L36.2574 42.575L26.24 48.3562V48.3562ZM32.2505 40.2599L26.24 43.7303V36.7894L32.2505 40.2599V40.2599ZM34.254 39.1023L26.24 34.4765V32.1636L36.2574 37.947L34.254 39.1023V39.1023ZM22.2331 29.8485L24.2366 31.006V33.3189L22.2331 32.1614V29.8485ZM22.2331 34.4765L24.2366 35.6341V44.8879L22.2331 46.0455V34.4765ZM22.2331 48.3562L24.2366 47.1986V49.5115L22.2331 50.6691V48.3562V48.3562ZM40.2644 44.8857L26.24 52.982V50.6691L38.2609 43.7281L40.2644 44.8857ZM40.2644 40.2599L38.2609 41.4174L36.2574 40.2599L38.2609 39.1023L40.2644 40.2599ZM38.2609 36.7894L26.24 29.8485V27.5356L40.2644 35.6318L38.2609 36.7894V36.7894Z" fill="#8F8E8C"/>
<path d="M50.5902 48.3561H48.2773V32.1636H55.334C58.573 32.1636 60.5386 34.1292 60.5386 37.0209C60.5386 39.9126 58.573 41.8782 55.334 41.8782H50.5925V48.3561H50.5902ZM58.2257 37.0209C58.2257 35.4025 57.2997 34.1292 55.334 34.1292H50.5925V39.9126H55.334C57.2997 39.9126 58.2257 38.6393 58.2257 37.0209V37.0209ZM61.3957 39.4496C61.6272 37.5284 63.2456 35.9791 66.509 35.9791C68.4991 35.9791 70.1865 36.5111 71.0435 37.9447C71.4131 38.5703 71.6223 39.4028 71.6223 40.3734V48.3539H69.4007V46.8491C68.7061 47.7751 67.3193 48.6989 65.3514 48.6989C62.8983 48.6989 60.8169 47.4256 60.8169 44.7655C60.8169 42.6841 62.2282 41.2037 65.2357 40.9477L69.4007 40.6004V40.3689C69.4007 38.7506 68.7061 37.7088 66.509 37.7088C64.7504 37.7088 63.8021 38.4033 63.6863 39.4429H61.3957V39.4496ZM69.3985 43.1515V42.2255L65.465 42.5728C63.8444 42.7108 63.0363 43.4988 63.0363 44.7699C63.0363 46.3905 64.1939 46.9671 65.5807 46.9671C67.6643 46.9693 69.3985 45.5802 69.3985 43.1515V43.1515ZM78.4675 38.1785C76.8492 38.1785 75.8074 39.1045 75.8074 41.1859V48.3584H73.5857V36.3264H75.8074V37.7154C76.3861 36.6736 77.31 36.0948 79.0463 36.0948H79.6718V38.1762H78.4675V38.1785ZM80.3419 39.4496C80.5734 37.5284 82.1918 35.9791 85.4552 35.9791C87.4453 35.9791 89.1327 36.5111 89.9898 37.9447C90.3593 38.5703 90.5685 39.4028 90.5685 40.3734V48.3539H88.3469V46.8491C87.6524 47.7751 86.2655 48.6989 84.2977 48.6989C81.8445 48.6989 79.7631 47.4256 79.7631 44.7655C79.7631 42.6841 81.1745 41.2037 84.1819 40.9477L88.3469 40.6004V40.3689C88.3469 38.7506 87.6524 37.7088 85.4552 37.7088C83.6966 37.7088 82.7483 38.4033 82.6325 39.4429H80.3419V39.4496ZM88.3469 43.1515V42.2255L84.4134 42.5728C82.7928 42.7108 81.9848 43.4988 81.9848 44.7699C81.9848 46.3905 83.1423 46.9671 84.5292 46.9671C86.6106 46.9693 88.3469 45.5802 88.3469 43.1515V43.1515ZM101.487 46.7378C100.793 47.8953 99.4061 48.7034 97.554 48.7034C93.9455 48.7034 91.9799 45.8117 91.9799 42.3412C91.9799 38.8708 93.9455 35.9791 97.554 35.9791C99.4039 35.9791 100.793 36.7894 101.487 37.9447V32.1636H103.707V48.3584H101.485V46.7378H101.487ZM97.9013 37.8312C95.4726 37.8312 94.1993 39.7968 94.1993 42.3412C94.1993 44.8857 95.4726 46.8535 97.9013 46.8535C100.33 46.8535 101.603 44.7721 101.603 42.3412C101.603 39.9126 100.33 37.8312 97.9013 37.8312ZM112.268 46.5063V48.3561H105.143V46.5063H107.596V38.1785H105.143V36.3286H109.815V46.5085H112.268V46.5063ZM109.815 34.4765H107.594V32.1636H109.815V34.4765V34.4765ZM121.614 46.5063C121.151 47.2008 119.879 48.2404 117.796 48.2404C114.419 48.2404 112.222 45.4644 112.222 42.1097C112.222 38.755 114.419 35.9791 117.796 35.9791C119.877 35.9791 121.151 37.0209 121.614 37.7132V36.3241H123.835V47.0806C123.835 50.8983 121.638 52.864 118.143 52.864C115.458 52.864 113.493 51.4749 113.03 49.3935H115.343C115.552 50.226 116.407 51.1276 118.141 51.1276C120.685 51.1276 121.611 49.5092 121.611 47.0784V46.5063H121.614ZM118.03 37.8312C115.832 37.8312 114.443 39.7968 114.443 42.112C114.443 44.4249 115.83 46.3927 118.03 46.3927C120.342 46.3927 121.732 44.4271 121.732 42.112C121.729 39.7968 120.342 37.8312 118.03 37.8312ZM128.091 37.7154C128.786 36.4421 130.173 35.9813 131.562 35.9813C133.18 35.9813 134.685 36.6759 135.38 38.0627C136.074 36.7894 137.345 35.9813 139.429 35.9813C141.973 35.9813 143.825 37.4861 143.825 40.4914V48.3561H141.604V40.8386C141.604 38.873 140.794 37.8312 138.966 37.8312C137.461 37.8312 135.958 38.7572 135.958 41.1859V48.3584H133.737V40.8409C133.737 38.8752 132.927 37.8334 131.099 37.8334C129.594 37.8334 128.091 38.7595 128.091 41.1881V48.3606H125.87V36.3264H128.091V37.7154V37.7154Z" fill="#8F8E8C"/>
</g>
<defs>
<clipPath id="clip0">
<rect x="16" y="25" width="128" height="30.4974" fill="white"/>
</clipPath>
</defs>
</svg>
