<svg width="24" height="24" viewBox="0 0 24 24" fill="none" xmlns="http://www.w3.org/2000/svg">
<g clip-path="url(#clip0)">
<path d="M23.8127 6.02937C23.8866 5.96795 23.942 5.88723 23.9727 5.79619C24.0034 5.70515 24.0083 5.60737 23.9868 5.51372C23.9653 5.42007 23.9182 5.33424 23.8508 5.26576C23.7834 5.19729 23.6983 5.14887 23.605 5.12588L22.7845 4.91818C22.7099 4.8995 22.6404 4.86449 22.581 4.81568C22.5216 4.76686 22.4738 4.70545 22.441 4.63589C22.4082 4.56634 22.3913 4.49036 22.3914 4.41347C22.3916 4.33657 22.4088 4.26066 22.4418 4.19123L22.8988 3.26697C22.9419 3.17741 22.9585 3.07733 22.9465 2.97864C22.9344 2.87995 22.8943 2.78679 22.8309 2.71024C22.7674 2.63368 22.6833 2.57694 22.5886 2.54677C22.4939 2.51659 22.3925 2.51425 22.2965 2.54002L20.2195 3.12158C20.1421 3.14415 20.0605 3.14839 19.9812 3.13397C19.9019 3.11955 19.827 3.08686 19.7625 3.0385C18.8637 2.3644 17.7705 2 16.647 2C15.2699 2 13.9492 2.54706 12.9754 3.52085C12.0016 4.49463 11.4545 5.81536 11.4545 7.19249V7.56635C11.455 7.63013 11.432 7.69186 11.3898 7.73974C11.3477 7.78763 11.2894 7.81832 11.2261 7.82597C8.30788 8.16868 5.51433 6.68363 2.50268 3.21504C2.43726 3.14289 2.35321 3.09017 2.25977 3.06269C2.16633 3.03521 2.06712 3.03402 1.97305 3.05927C1.8883 3.09822 1.81561 3.15928 1.76262 3.23603C1.70962 3.31278 1.67828 3.40239 1.67188 3.49544C1.25592 5.20412 1.4241 7.00289 2.14959 8.60485C2.17106 8.64734 2.18043 8.69491 2.17668 8.74237C2.17293 8.78982 2.1562 8.83534 2.12833 8.87393C2.10046 8.91252 2.06252 8.94271 2.01864 8.96119C1.97477 8.97966 1.92667 8.98573 1.87958 8.97871L0.716464 8.75024C0.633864 8.73696 0.549278 8.74383 0.469906 8.77028C0.390535 8.79672 0.318729 8.84195 0.2606 8.90212C0.202471 8.96229 0.159742 9.03561 0.136049 9.11585C0.112355 9.19609 0.1084 9.28086 0.12452 9.36295C0.214183 10.1599 0.481944 10.9266 0.907983 11.6061C1.33402 12.2856 1.90743 12.8606 2.58576 13.2885C2.62966 13.3097 2.66667 13.3429 2.69258 13.3843C2.71848 13.4256 2.73222 13.4734 2.73222 13.5221C2.73222 13.5709 2.71848 13.6187 2.69258 13.66C2.66667 13.7013 2.62966 13.7345 2.58576 13.7558L2.03536 13.9739C1.96851 14.0007 1.90798 14.0411 1.85759 14.0925C1.8072 14.144 1.76807 14.2054 1.74268 14.2728C1.71728 14.3401 1.70619 14.4121 1.71009 14.484C1.71399 14.5559 1.73281 14.6262 1.76535 14.6904C2.06972 15.3565 2.53109 15.9387 3.10989 16.3873C3.68869 16.8359 4.36764 17.1374 5.08854 17.2659C5.13866 17.2841 5.18197 17.3173 5.21257 17.361C5.24317 17.4046 5.25959 17.4567 5.25959 17.51C5.25959 17.5633 5.24317 17.6153 5.21257 17.659C5.18197 17.7026 5.13866 17.7358 5.08854 17.754C3.67656 18.338 2.16129 18.6312 0.633384 18.616C0.495671 18.5884 0.352656 18.6167 0.235803 18.6946C0.118949 18.7725 0.037828 18.8937 0.0102853 19.0314C-0.0172574 19.1691 0.0110344 19.3121 0.0889369 19.429C0.166839 19.5458 0.287971 19.6269 0.425685 19.6545C3.0713 20.9092 5.95172 21.5922 8.87906 21.6588C11.454 21.698 13.9831 20.9754 16.1485 19.5818C17.9298 18.3927 19.3892 16.7815 20.3967 14.8916C21.4041 13.0017 21.9283 10.8919 21.9226 8.75024V7.84674C21.9232 7.77134 21.9403 7.69697 21.9726 7.62883C22.0048 7.56068 22.0516 7.50037 22.1095 7.45212L23.8127 6.02937Z" fill="white"/>
</g>
<defs>
<clipPath id="clip0">
<rect width="24" height="24" fill="white"/>
</clipPath>
</defs>
</svg>
