<svg width="160" height="80" viewBox="0 0 160 80" fill="none" xmlns="http://www.w3.org/2000/svg">
<rect width="160" height="80" rx="4" fill="white"/>
<path d="M16 41.4347V41.3983C16 37.8824 18.7102 35 22.595 35C24.9814 35 26.4076 35.7768 27.5931 36.9088L25.8214 38.9053C24.8458 38.0493 23.8527 37.508 22.5862 37.508C20.4535 37.508 18.918 39.2413 18.918 41.3598V41.3983C18.918 43.5189 20.4185 45.2865 22.5862 45.2865C24.0321 45.2865 24.918 44.7215 25.911 43.8378L27.6828 45.5882C26.3813 46.9492 24.9355 47.7987 22.4965 47.7987C18.7649 47.7987 16 44.989 16 41.4347Z" fill="#8F8E8C"/>
<path d="M38.2596 41.2534C39.6136 41.2534 40.3923 40.5473 40.3923 39.503V39.4688C40.3923 38.3025 39.5611 37.7012 38.2049 37.7012H35.4401V41.2534H38.2596ZM32.6577 35.2446H38.4412C40.0489 35.2446 41.2957 35.6876 42.1269 36.5007C42.8312 37.1898 43.2206 38.1634 43.2206 39.3297V39.3661C43.2206 41.3626 42.1269 42.6187 40.5104 43.2029L43.5881 47.6175H40.3376L37.6253 43.6565H35.4379V47.6153H32.6577V35.2446Z" fill="#8F8E8C"/>
<path d="M48.7202 35.2446H58.2616V37.667H51.4851V40.1771H57.4479V42.5994H51.4851V45.1973H58.3513V47.6196H48.7202V35.2446Z" fill="#8F8E8C"/>
<path d="M71.1683 42.4067L69.4884 38.3945L67.8085 42.4067H71.1705H71.1683ZM68.2416 35.1311H70.8074L76.2277 47.5938H73.3185L72.1614 44.812H66.8154L65.6583 47.5938H62.8147L68.2416 35.1226V35.1311Z" fill="#8F8E8C"/>
<path d="M81.0039 35.2446H83.5697L89.4975 42.8648V35.2446H92.2427V47.6196H89.8759L83.7513 39.7534V47.6196H81.0039V35.2446Z" fill="#8F8E8C"/>
<path d="M103.22 45.1609C105.497 45.1609 107.032 43.663 107.032 41.4653V41.4311C107.032 39.2398 105.501 37.7012 103.22 37.7012H101.069V45.1609H103.22ZM98.2871 35.2446H103.22C107.194 35.2446 109.941 37.9152 109.941 41.3968V41.4332C109.941 44.9148 107.194 47.6196 103.22 47.6196H98.2871V35.2446Z" fill="#8F8E8C"/>
<path d="M114.756 42.3063V35.2446H117.538V42.2442C117.538 44.26 118.569 45.3021 120.266 45.3021C121.964 45.3021 122.996 44.2942 122.996 42.332V35.2446H125.778V42.225C125.778 45.9719 123.628 47.8101 120.231 47.8101C116.834 47.8101 114.763 45.9548 114.763 42.3127L114.756 42.3063Z" fill="#8F8E8C"/>
<path d="M141.001 35.2446L137.676 40.4788L134.351 35.2446H131.35V47.6196H134.08V39.595L136.893 43.77H138.387L141.235 39.5415V47.6196H144V35.2446H141.001Z" fill="#8F8E8C"/>
</svg>
